<svg width="20" height="22" viewBox="0 0 20 22" fill="none" xmlns="http://www.w3.org/2000/svg">
<path fill-rule="evenodd" clip-rule="evenodd" d="M9.43726 1.10975C9.76828 0.852292 10.2318 0.852292 10.5628 1.10975L18.8128 7.52642C19.0361 7.70008 19.1667 7.96711 19.1667 8.24999V18.3333C19.1667 19.0627 18.877 19.7621 18.3612 20.2779C17.8455 20.7936 17.1461 21.0833 16.4167 21.0833H3.58337C2.85402 21.0833 2.15455 20.7936 1.63883 20.2779C1.1231 19.7621 0.83337 19.0627 0.83337 18.3333V8.24999C0.83337 7.96711 0.96397 7.70008 1.18726 7.52642L9.43726 1.10975ZM2.6667 8.69832V18.3333C2.6667 18.5764 2.76328 18.8096 2.93519 18.9815C3.1071 19.1534 3.34026 19.25 3.58337 19.25H16.4167C16.6598 19.25 16.893 19.1534 17.0649 18.9815C17.2368 18.8096 17.3334 18.5764 17.3334 18.3333V8.69832L10 2.99461L2.6667 8.69832Z" fill="#FF8181"/>
</svg>
