<svg width="11" height="10" viewBox="0 0 11 10" fill="none" xmlns="http://www.w3.org/2000/svg">
<path d="M5.05164 0.991661C5.23506 0.620077 5.76493 0.620076 5.94835 0.99166L7.05752 3.23872C7.13029 3.38615 7.27088 3.48838 7.43356 3.51215L9.91477 3.87482C10.3247 3.93474 10.4881 4.43866 10.1913 4.72774L8.39672 6.47568C8.27879 6.59055 8.22495 6.75612 8.25278 6.91838L8.67621 9.38716C8.74627 9.79564 8.31749 10.1071 7.95068 9.91422L5.73272 8.74782C5.58703 8.6712 5.41296 8.6712 5.26727 8.74782L3.04931 9.91422C2.6825 10.1071 2.25372 9.79564 2.32378 9.38716L2.74721 6.91838C2.77504 6.75612 2.7212 6.59055 2.60327 6.47568L0.808667 4.72774C0.51187 4.43866 0.675263 3.93474 1.08522 3.87482L3.56643 3.51215C3.72911 3.48838 3.8697 3.38615 3.94247 3.23872L5.05164 0.991661Z" fill="#FFC960"/>
</svg>
